<svg width="300" height="300" version="1.1" viewBox="0 0 79.37 79.37" xmlns="http://www.w3.org/2000/svg" xmlns:osb="http://www.openswatchbook.org/uri/2009/osb" xmlns:xlink="http://www.w3.org/1999/xlink"><defs><radialGradient id="radialGradient954" cx=".1428" cy="56.94" r="10.19" gradientTransform="matrix(-1.95 0 0 -1.916 .2849 165.2)" gradientUnits="userSpaceOnUse"><stop stop-color="#ff4155" offset="0"/><stop stop-color="#ff4155" offset="1"/><stop stop-opacity="0" offset="1"/></radialGradient></defs><g fill="none" stroke-width=".2646"><ellipse cx="13.62" cy="7.322" rx="8.301" ry="2.378"/><ellipse cx="31.85" cy="20.29" rx="8.068" ry="7.602"/></g><g><g><g stroke-width=".2646"><path d="m39.69 19.84a19.84 19.84 0 0 0-19.84 19.84 19.84 19.84 0 0 0 19.84 19.84 19.84 19.84 0 0 0 19.84-19.84 19.84 19.84 0 0 0-19.84-19.84z" style="paint-order:markers stroke fill"/><rect x="6.615" y="37.04" width="66.15" height="5.292" rx="2.646" ry="2.646"/><rect transform="rotate(90)" x="6.615" y="-42.33" width="66.15" height="5.292" rx="2.646" ry="2.646"/><rect transform="rotate(45)" x="25.42" y="-2.646" width="19.84" height="5.292" rx="2.646" ry="2.646"/></g><rect transform="rotate(225)" x="-86.42" y="-2.646" width="19.84" height="5.292" rx="2.646" ry="2.646"/><rect transform="rotate(-45)" x="-30.5" y="53.65" width="19.84" height="5.292" rx="2.646" ry="2.646" stroke="url(#radialGradient954)" stroke-linecap="round" stroke-linejoin="round" stroke-width=".5292" style="mix-blend-mode:normal;paint-order:markers stroke fill"/><rect transform="rotate(-45)" x="10.66" y="53.28" width="19.84" height="5.292" rx="2.646" ry="2.646" stroke-width=".2646"/></g><ellipse transform="rotate(45)" cx="56.13" cy="-13.1" rx="7.1" ry="2.367" fill="#ff4155" stroke-width=".2685"/></g></svg>
